<svg height='100px' width='100px'  fill="#1A1A1A" xmlns="http://www.w3.org/2000/svg" xmlns:xlink="http://www.w3.org/1999/xlink" version="1.1" x="0px" y="0px" viewBox="0 0 100 100" enable-background="new 0 0 100 100" xml:space="preserve"><g><g><g><path fill="none" d="M50,10.626c-21.712,0-39.375,17.664-39.375,39.376c0,21.71,17.664,39.372,39.375,39.372     s39.375-17.662,39.375-39.372C89.375,28.29,71.712,10.626,50,10.626z"></path><path d="M50,5.001c-24.813,0-45,20.187-45,45c0,24.811,20.187,44.997,45,44.997s45-20.186,45-44.997     C95,25.188,74.813,5.001,50,5.001z M50,89.374c-21.712,0-39.375-17.662-39.375-39.372c0-21.712,17.664-39.376,39.375-39.376     S89.375,28.29,89.375,50.002C89.375,71.712,71.712,89.374,50,89.374z"></path></g></g></g></svg>