<svg height='100px' width='100px'  fill="#1A1A1A" xmlns="http://www.w3.org/2000/svg" viewBox="0 0 32 32" x="0px" y="0px"><title>image</title><g data-name="Layer 51"><path d="M27.25,1.5H4.75A3.2538,3.2538,0,0,0,1.5,4.75v22.5A3.2538,3.2538,0,0,0,4.75,30.5h22.5a3.2538,3.2538,0,0,0,3.25-3.25V4.75A3.2538,3.2538,0,0,0,27.25,1.5Zm-22.5,2h22.5A1.2511,1.2511,0,0,1,28.5,4.75V20.2566l-5.998-5.7078a1.0013,1.0013,0,0,0-1.34-.0351L13.33,21.2212l-3.5772-3.648a.9983.9983,0,0,0-1.3564-.0659L3.5,21.6141V4.75A1.2511,1.2511,0,0,1,4.75,3.5Zm22.5,25H4.75A1.2511,1.2511,0,0,1,3.5,27.25V24.2242l5.4727-4.59,3.573,3.6436,2.71,3.0224a1,1,0,1,0,1.4882-1.335l-2.0463-2.2821L21.7773,16.62,28.5,23.0179V27.25A1.2511,1.2511,0,0,1,27.25,28.5ZM8.5938,12.7813A3.5313,3.5313,0,1,0,5.0625,9.25,3.5351,3.5351,0,0,0,8.5938,12.7813Zm0-5.0625A1.5313,1.5313,0,1,1,7.0625,9.25,1.5327,1.5327,0,0,1,8.5938,7.7188Z"></path></g></svg>