<svg height='100px' width='100px'  fill="#1A1A1A" xmlns="http://www.w3.org/2000/svg" viewBox="0 0 32 32" x="0px" y="0px"><title>note_1</title><g data-name="66-note"><path d="M30.9343,21.3261a.9832.9832,0,0,0,.0535-.2656C30.9891,21.0394,31,21.0215,31,21V2a1,1,0,0,0-1-1H2A1,1,0,0,0,1,2V30a1,1,0,0,0,1,1H21a1.01,1.01,0,0,0,.7083-.2943l8.9974-8.9974.0059-.0074a.99.99,0,0,0,.1891-.2807A.9539.9539,0,0,0,30.9343,21.3261ZM20,21v8H3V3H29V20H21A1,1,0,0,0,20,21Zm2,6.5859V22h5.5859ZM7,9A1,1,0,0,1,8,8H24a1,1,0,0,1,0,2H8A1,1,0,0,1,7,9Zm17,7H8a1,1,0,0,1,0-2H24a1,1,0,0,1,0,2Zm-7,5a1,1,0,0,1-1,1H8a1,1,0,0,1,0-2h8A1,1,0,0,1,17,21Z"></path></g></svg>