<svg height='100px' width='100px'  fill="#1A1A1A" xmlns="http://www.w3.org/2000/svg" data-name="Layer 1" viewBox="0 0 100 100" x="0px" y="0px"><title>Pointer</title><path d="M58.266,93.905a6.646,6.646,0,0,1-6.241-4.365L43.272,65.49,32.006,76.156a6.634,6.634,0,0,1-11.178-5.293l4.206-58.6A6.634,6.634,0,0,1,36.415,8.119L77.307,50.306a6.634,6.634,0,0,1-5.161,11.239l-15.633-.937,8.772,24.1a6.641,6.641,0,0,1-3.965,8.5l-.792.288A6.592,6.592,0,0,1,58.266,93.905ZM44.528,60.17,54.844,88.513A3.638,3.638,0,0,0,59.5,90.685L60.3,90.4a3.639,3.639,0,0,0,2.172-4.658L52.13,57.339l20.2,1.212a3.634,3.634,0,0,0,2.827-6.157L34.261,10.207a3.635,3.635,0,0,0-6.235,2.269l-4.206,58.6a3.634,3.634,0,0,0,6.123,2.9Z"></path></svg>