<svg height='100px' width='100px'  fill="#1A1A1A" xmlns="http://www.w3.org/2000/svg" xmlns:xlink="http://www.w3.org/1999/xlink" version="1.1" x="0px" y="0px" viewBox="0 0 64 64" enable-background="new 0 0 64 64" xml:space="preserve"><g><g><path d="M23.89,51.02c0.004,0,0.009,0,0.013,0c0.552-0.007,0.994-0.46,0.987-1.013l-0.33-26c-0.007-0.552-0.471-1.002-1.013-0.987    c-0.552,0.007-0.994,0.46-0.987,1.013l0.33,26C22.896,50.581,23.343,51.02,23.89,51.02z"></path><path d="M40.098,51.02c0.004,0,0.009,0,0.013,0c0.547,0,0.993-0.439,1-0.987l0.33-26c0.007-0.552-0.436-1.005-0.987-1.013    c-0.529-0.015-1.006,0.435-1.013,0.987l-0.33,26C39.104,50.56,39.546,51.013,40.098,51.02z"></path><path d="M51,13H40.941C40.442,8.507,36.625,5,32,5s-8.442,3.507-8.941,8H13c-1.654,0-3,1.346-3,3v1c0,1.654,1.346,3,3,3h1.025    l0.838,32.024C14.951,55.871,18.152,59,22,59h20c3.848,0,7.049-3.129,7.137-6.972L49.975,20H51c1.654,0,3-1.346,3-3v-1    C54,14.346,52.654,13,51,13z M32,7c3.519,0,6.432,2.613,6.92,6H25.08C25.568,9.613,28.481,7,32,7z M47.137,51.979    C47.074,54.748,44.77,57,42,57H22c-2.77,0-5.074-2.252-5.137-5.025L16.027,20h31.946L47.137,51.979z M52,17c0,0.551-0.448,1-1,1    H13c-0.552,0-1-0.449-1-1v-1c0-0.551,0.448-1,1-1h38c0.552,0,1,0.449,1,1V17z"></path><path d="M32,51.021c0.553,0,1-0.448,1-1v-26c0-0.552-0.447-1-1-1s-1,0.448-1,1v26C31,50.574,31.447,51.021,32,51.021z"></path></g></g></svg>